<?xml version="1.0" encoding="UTF-8"?>
<svg id="Calque_1" data-name="Calque 1" xmlns="http://www.w3.org/2000/svg" viewBox="0 0 300 300">
  <defs>
    <style>
      .cls-1 {
        fill: none;
        stroke: #000;
        stroke-miterlimit: 10;
        stroke-width: 4px;
      }
    </style>
  </defs>
  <path class="cls-1" d="M131.78,73.26c-6.83,14.4-17.36,25.81-28.08,37.05-16.74,17.58-34.86,33.67-53.55,49.13-4.91,4.06-9.81,8.13-14.71,12.2-.26.22-.54.43-1.03.82-.49-2.23-1.01-4.27-1.39-6.34-5.05-27.91-1.58-54.7,11.79-79.76,17.58-32.94,44.67-54.27,81.32-61.8,39.62-8.15,74.91,1.98,104.85,29.22,19.96,18.16,32.16,40.93,36.88,67.5,5,28.15.68,54.93-12.83,80.19-.09.17-.21.33-.5.77-47.58-36.63-87.44-80.52-122.76-128.96Z"/>
  <path class="cls-1" d="M36.22,178.4c1.93-.73,3.87-1.44,5.8-2.2,14.7-5.8,28.64-13.17,42.19-21.21,14.88-8.83,29.46-18.16,44.16-27.27.8-.5,1.59-1.02,2.52-1.61,34.78,34.6,73.5,63.91,117.2,86.43-24.61,36.35-70.5,58.61-119.07,49.68-51.5-9.47-83.32-49.33-92.8-83.82Z"/>
</svg>